<svg xmlns="http://www.w3.org/2000/svg" version="1.1" xmlns:xlink="http://www.w3.org/1999/xlink" xmlns:svgjs="http://svgjs.dev/svgjs" width="1440" height="560" preserveAspectRatio="none" viewBox="0 0 1440 560"><g mask="url(&quot;#SvgjsMask1014&quot;)" fill="none"><path d="M-95.45 547.04L-95.45 547.04" stroke="rgba(102, 22, 22, 1)" stroke-width="1.5"></path><path d="M-95.45 547.04L-72.05 710.12" stroke="rgba(102, 22, 22, 1)" stroke-width="1.5"></path><path d="M-95.45 547.04L58.43 684.46" stroke="rgba(102, 22, 22, 1)" stroke-width="1.5"></path><path d="M-95.45 547.04L106.48 338.21" stroke="rgba(102, 22, 22, 1)" stroke-width="1.5"></path><path d="M-95.45 547.04L217.89 372.46" stroke="rgba(102, 22, 22, 1)" stroke-width="1.5"></path><path d="M-95.45 547.04L261.31 509" stroke="rgba(102, 22, 22, 1)" stroke-width="1.5"></path><path d="M-72.05 710.12L-72.05 710.12" stroke="rgba(102, 22, 22, 1)" stroke-width="1.5"></path><path d="M-72.05 710.12L58.43 684.46" stroke="rgba(102, 22, 22, 1)" stroke-width="1.5"></path><path d="M106.48 338.21L106.48 338.21" stroke="rgba(102, 22, 22, 1)" stroke-width="1.5"></path><path d="M106.48 338.21L217.89 372.46" stroke="rgba(102, 22, 22, 1)" stroke-width="1.5"></path><path d="M106.48 338.21L261.31 509" stroke="rgba(102, 22, 22, 1)" stroke-width="1.5"></path><path d="M106.48 338.21L387.54 363.82" stroke="rgba(102, 22, 22, 1)" stroke-width="1.5"></path><path d="M106.48 338.21L410.48 507.3" stroke="rgba(102, 22, 22, 1)" stroke-width="1.5"></path><path d="M106.48 338.21L58.43 684.46" stroke="rgba(102, 22, 22, 1)" stroke-width="1.5"></path><path d="M58.43 684.46L58.43 684.46" stroke="rgba(102, 22, 22, 1)" stroke-width="1.5"></path><path d="M58.43 684.46L241.86 677.13" stroke="rgba(102, 22, 22, 1)" stroke-width="1.5"></path><path d="M58.43 684.46L261.31 509" stroke="rgba(102, 22, 22, 1)" stroke-width="1.5"></path><path d="M217.89 372.46L217.89 372.46" stroke="rgba(102, 22, 22, 1)" stroke-width="1.5"></path><path d="M217.89 372.46L261.31 509" stroke="rgba(102, 22, 22, 1)" stroke-width="1.5"></path><path d="M217.89 372.46L387.54 363.82" stroke="rgba(102, 22, 22, 1)" stroke-width="1.5"></path><path d="M217.89 372.46L410.48 507.3" stroke="rgba(102, 22, 22, 1)" stroke-width="1.5"></path><path d="M217.89 372.46L241.86 677.13" stroke="rgba(102, 22, 22, 1)" stroke-width="1.5"></path><path d="M217.89 372.46L494.65 533.4" stroke="rgba(102, 22, 22, 1)" stroke-width="1.5"></path><path d="M261.31 509L261.31 509" stroke="rgba(102, 22, 22, 1)" stroke-width="1.5"></path><path d="M261.31 509L410.48 507.3" stroke="rgba(102, 22, 22, 1)" stroke-width="1.5"></path><path d="M261.31 509L241.86 677.13" stroke="rgba(102, 22, 22, 1)" stroke-width="1.5"></path><path d="M241.86 677.13L241.86 677.13" stroke="rgba(102, 22, 22, 1)" stroke-width="1.5"></path><path d="M241.86 677.13L389.62 652.19" stroke="rgba(102, 22, 22, 1)" stroke-width="1.5"></path><path d="M241.86 677.13L410.48 507.3" stroke="rgba(102, 22, 22, 1)" stroke-width="1.5"></path><path d="M387.54 363.82L387.54 363.82" stroke="rgba(102, 22, 22, 1)" stroke-width="1.5"></path><path d="M387.54 363.82L410.48 507.3" stroke="rgba(102, 22, 22, 1)" stroke-width="1.5"></path><path d="M387.54 363.82L549.67 370.42" stroke="rgba(102, 22, 22, 1)" stroke-width="1.5"></path><path d="M387.54 363.82L261.31 509" stroke="rgba(102, 22, 22, 1)" stroke-width="1.5"></path><path d="M410.48 507.3L410.48 507.3" stroke="rgba(102, 22, 22, 1)" stroke-width="1.5"></path><path d="M410.48 507.3L494.65 533.4" stroke="rgba(102, 22, 22, 1)" stroke-width="1.5"></path><path d="M410.48 507.3L389.62 652.19" stroke="rgba(102, 22, 22, 1)" stroke-width="1.5"></path><path d="M410.48 507.3L549.67 370.42" stroke="rgba(102, 22, 22, 1)" stroke-width="1.5"></path><path d="M410.48 507.3L527.31 678.41" stroke="rgba(102, 22, 22, 1)" stroke-width="1.5"></path><path d="M389.62 652.19L389.62 652.19" stroke="rgba(102, 22, 22, 1)" stroke-width="1.5"></path><path d="M389.62 652.19L527.31 678.41" stroke="rgba(102, 22, 22, 1)" stroke-width="1.5"></path><path d="M549.67 370.42L549.67 370.42" stroke="rgba(102, 22, 22, 1)" stroke-width="1.5"></path><path d="M549.67 370.42L680.6 408.82" stroke="rgba(102, 22, 22, 1)" stroke-width="1.5"></path><path d="M549.67 370.42L494.65 533.4" stroke="rgba(102, 22, 22, 1)" stroke-width="1.5"></path><path d="M549.67 370.42L658.87 225.54" stroke="rgba(102, 22, 22, 1)" stroke-width="1.5"></path><path d="M549.67 370.42L671.09 554.63" stroke="rgba(102, 22, 22, 1)" stroke-width="1.5"></path><path d="M494.65 533.4L494.65 533.4" stroke="rgba(102, 22, 22, 1)" stroke-width="1.5"></path><path d="M494.65 533.4L527.31 678.41" stroke="rgba(102, 22, 22, 1)" stroke-width="1.5"></path><path d="M494.65 533.4L389.62 652.19" stroke="rgba(102, 22, 22, 1)" stroke-width="1.5"></path><path d="M494.65 533.4L671.09 554.63" stroke="rgba(102, 22, 22, 1)" stroke-width="1.5"></path><path d="M494.65 533.4L643.4 667.26" stroke="rgba(102, 22, 22, 1)" stroke-width="1.5"></path><path d="M527.31 678.41L527.31 678.41" stroke="rgba(102, 22, 22, 1)" stroke-width="1.5"></path><path d="M527.31 678.41L643.4 667.26" stroke="rgba(102, 22, 22, 1)" stroke-width="1.5"></path><path d="M527.31 678.41L671.09 554.63" stroke="rgba(102, 22, 22, 1)" stroke-width="1.5"></path><path d="M527.31 678.41L241.86 677.13" stroke="rgba(102, 22, 22, 1)" stroke-width="1.5"></path><path d="M658.87 225.54L658.87 225.54" stroke="rgba(102, 22, 22, 1)" stroke-width="1.5"></path><path d="M658.87 225.54L680.6 408.82" stroke="rgba(102, 22, 22, 1)" stroke-width="1.5"></path><path d="M658.87 225.54L861.44 223.7" stroke="rgba(102, 22, 22, 1)" stroke-width="1.5"></path><path d="M658.87 225.54L791.7 395.12" stroke="rgba(102, 22, 22, 1)" stroke-width="1.5"></path><path d="M680.6 408.82L680.6 408.82" stroke="rgba(102, 22, 22, 1)" stroke-width="1.5"></path><path d="M680.6 408.82L791.7 395.12" stroke="rgba(102, 22, 22, 1)" stroke-width="1.5"></path><path d="M680.6 408.82L671.09 554.63" stroke="rgba(102, 22, 22, 1)" stroke-width="1.5"></path><path d="M671.09 554.63L671.09 554.63" stroke="rgba(102, 22, 22, 1)" stroke-width="1.5"></path><path d="M671.09 554.63L643.4 667.26" stroke="rgba(102, 22, 22, 1)" stroke-width="1.5"></path><path d="M671.09 554.63L816.33 530.04" stroke="rgba(102, 22, 22, 1)" stroke-width="1.5"></path><path d="M643.4 667.26L643.4 667.26" stroke="rgba(102, 22, 22, 1)" stroke-width="1.5"></path><path d="M643.4 667.26L820.69 702.24" stroke="rgba(102, 22, 22, 1)" stroke-width="1.5"></path><path d="M643.4 667.26L816.33 530.04" stroke="rgba(102, 22, 22, 1)" stroke-width="1.5"></path><path d="M857.37 70.76L857.37 70.76" stroke="rgba(102, 22, 22, 1)" stroke-width="1.5"></path><path d="M857.37 70.76L1002.34 58.3" stroke="rgba(102, 22, 22, 1)" stroke-width="1.5"></path><path d="M857.37 70.76L861.44 223.7" stroke="rgba(102, 22, 22, 1)" stroke-width="1.5"></path><path d="M857.37 70.76L1007.86 -65.2" stroke="rgba(102, 22, 22, 1)" stroke-width="1.5"></path><path d="M857.37 70.76L953.3 259.81" stroke="rgba(102, 22, 22, 1)" stroke-width="1.5"></path><path d="M857.37 70.76L1089.65 40.7" stroke="rgba(102, 22, 22, 1)" stroke-width="1.5"></path><path d="M857.37 70.76L658.87 225.54" stroke="rgba(102, 22, 22, 1)" stroke-width="1.5"></path><path d="M861.44 223.7L861.44 223.7" stroke="rgba(102, 22, 22, 1)" stroke-width="1.5"></path><path d="M861.44 223.7L953.3 259.81" stroke="rgba(102, 22, 22, 1)" stroke-width="1.5"></path><path d="M861.44 223.7L791.7 395.12" stroke="rgba(102, 22, 22, 1)" stroke-width="1.5"></path><path d="M861.44 223.7L1005.98 368.92" stroke="rgba(102, 22, 22, 1)" stroke-width="1.5"></path><path d="M791.7 395.12L791.7 395.12" stroke="rgba(102, 22, 22, 1)" stroke-width="1.5"></path><path d="M791.7 395.12L816.33 530.04" stroke="rgba(102, 22, 22, 1)" stroke-width="1.5"></path><path d="M791.7 395.12L671.09 554.63" stroke="rgba(102, 22, 22, 1)" stroke-width="1.5"></path><path d="M816.33 530.04L816.33 530.04" stroke="rgba(102, 22, 22, 1)" stroke-width="1.5"></path><path d="M816.33 530.04L954.63 526.17" stroke="rgba(102, 22, 22, 1)" stroke-width="1.5"></path><path d="M820.69 702.24L820.69 702.24" stroke="rgba(102, 22, 22, 1)" stroke-width="1.5"></path><path d="M820.69 702.24L816.33 530.04" stroke="rgba(102, 22, 22, 1)" stroke-width="1.5"></path><path d="M820.69 702.24L999.58 696.33" stroke="rgba(102, 22, 22, 1)" stroke-width="1.5"></path><path d="M820.69 702.24L671.09 554.63" stroke="rgba(102, 22, 22, 1)" stroke-width="1.5"></path><path d="M820.69 702.24L954.63 526.17" stroke="rgba(102, 22, 22, 1)" stroke-width="1.5"></path><path d="M1007.86 -65.2L1007.86 -65.2" stroke="rgba(102, 22, 22, 1)" stroke-width="1.5"></path><path d="M1007.86 -65.2L1002.34 58.3" stroke="rgba(102, 22, 22, 1)" stroke-width="1.5"></path><path d="M1007.86 -65.2L1089.65 40.7" stroke="rgba(102, 22, 22, 1)" stroke-width="1.5"></path><path d="M1002.34 58.3L1002.34 58.3" stroke="rgba(102, 22, 22, 1)" stroke-width="1.5"></path><path d="M1002.34 58.3L1089.65 40.7" stroke="rgba(102, 22, 22, 1)" stroke-width="1.5"></path><path d="M1002.34 58.3L1149.37 -55.1" stroke="rgba(102, 22, 22, 1)" stroke-width="1.5"></path><path d="M1002.34 58.3L1102.91 218.74" stroke="rgba(102, 22, 22, 1)" stroke-width="1.5"></path><path d="M1002.34 58.3L953.3 259.81" stroke="rgba(102, 22, 22, 1)" stroke-width="1.5"></path><path d="M953.3 259.81L953.3 259.81" stroke="rgba(102, 22, 22, 1)" stroke-width="1.5"></path><path d="M953.3 259.81L1005.98 368.92" stroke="rgba(102, 22, 22, 1)" stroke-width="1.5"></path><path d="M953.3 259.81L1102.91 218.74" stroke="rgba(102, 22, 22, 1)" stroke-width="1.5"></path><path d="M953.3 259.81L791.7 395.12" stroke="rgba(102, 22, 22, 1)" stroke-width="1.5"></path><path d="M1005.98 368.92L1005.98 368.92" stroke="rgba(102, 22, 22, 1)" stroke-width="1.5"></path><path d="M1005.98 368.92L1147.9 346.63" stroke="rgba(102, 22, 22, 1)" stroke-width="1.5"></path><path d="M1005.98 368.92L954.63 526.17" stroke="rgba(102, 22, 22, 1)" stroke-width="1.5"></path><path d="M1005.98 368.92L1102.91 218.74" stroke="rgba(102, 22, 22, 1)" stroke-width="1.5"></path><path d="M1005.98 368.92L1111.67 522.35" stroke="rgba(102, 22, 22, 1)" stroke-width="1.5"></path><path d="M954.63 526.17L954.63 526.17" stroke="rgba(102, 22, 22, 1)" stroke-width="1.5"></path><path d="M954.63 526.17L1111.67 522.35" stroke="rgba(102, 22, 22, 1)" stroke-width="1.5"></path><path d="M999.58 696.33L999.58 696.33" stroke="rgba(102, 22, 22, 1)" stroke-width="1.5"></path><path d="M999.58 696.33L1161.58 657.05" stroke="rgba(102, 22, 22, 1)" stroke-width="1.5"></path><path d="M999.58 696.33L954.63 526.17" stroke="rgba(102, 22, 22, 1)" stroke-width="1.5"></path><path d="M1149.37 -55.1L1149.37 -55.1" stroke="rgba(102, 22, 22, 1)" stroke-width="1.5"></path><path d="M1149.37 -55.1L1089.65 40.7" stroke="rgba(102, 22, 22, 1)" stroke-width="1.5"></path><path d="M1149.37 -55.1L1274.94 -87.89" stroke="rgba(102, 22, 22, 1)" stroke-width="1.5"></path><path d="M1149.37 -55.1L1007.86 -65.2" stroke="rgba(102, 22, 22, 1)" stroke-width="1.5"></path><path d="M1149.37 -55.1L1262.97 67.6" stroke="rgba(102, 22, 22, 1)" stroke-width="1.5"></path><path d="M1149.37 -55.1L1420.17 -111.69" stroke="rgba(102, 22, 22, 1)" stroke-width="1.5"></path><path d="M1089.65 40.7L1089.65 40.7" stroke="rgba(102, 22, 22, 1)" stroke-width="1.5"></path><path d="M1102.91 218.74L1102.91 218.74" stroke="rgba(102, 22, 22, 1)" stroke-width="1.5"></path><path d="M1102.91 218.74L1147.9 346.63" stroke="rgba(102, 22, 22, 1)" stroke-width="1.5"></path><path d="M1102.91 218.74L1241.46 240.48" stroke="rgba(102, 22, 22, 1)" stroke-width="1.5"></path><path d="M1102.91 218.74L1089.65 40.7" stroke="rgba(102, 22, 22, 1)" stroke-width="1.5"></path><path d="M1147.9 346.63L1147.9 346.63" stroke="rgba(102, 22, 22, 1)" stroke-width="1.5"></path><path d="M1147.9 346.63L1241.46 240.48" stroke="rgba(102, 22, 22, 1)" stroke-width="1.5"></path><path d="M1111.67 522.35L1111.67 522.35" stroke="rgba(102, 22, 22, 1)" stroke-width="1.5"></path><path d="M1111.67 522.35L1161.58 657.05" stroke="rgba(102, 22, 22, 1)" stroke-width="1.5"></path><path d="M1111.67 522.35L1147.9 346.63" stroke="rgba(102, 22, 22, 1)" stroke-width="1.5"></path><path d="M1111.67 522.35L1309.6 536.32" stroke="rgba(102, 22, 22, 1)" stroke-width="1.5"></path><path d="M1111.67 522.35L1251.55 674.55" stroke="rgba(102, 22, 22, 1)" stroke-width="1.5"></path><path d="M1161.58 657.05L1161.58 657.05" stroke="rgba(102, 22, 22, 1)" stroke-width="1.5"></path><path d="M1161.58 657.05L1251.55 674.55" stroke="rgba(102, 22, 22, 1)" stroke-width="1.5"></path><path d="M1161.58 657.05L1309.6 536.32" stroke="rgba(102, 22, 22, 1)" stroke-width="1.5"></path><path d="M1161.58 657.05L954.63 526.17" stroke="rgba(102, 22, 22, 1)" stroke-width="1.5"></path><path d="M1274.94 -87.89L1274.94 -87.89" stroke="rgba(102, 22, 22, 1)" stroke-width="1.5"></path><path d="M1274.94 -87.89L1420.17 -111.69" stroke="rgba(102, 22, 22, 1)" stroke-width="1.5"></path><path d="M1262.97 67.6L1262.97 67.6" stroke="rgba(102, 22, 22, 1)" stroke-width="1.5"></path><path d="M1262.97 67.6L1399.01 106.7" stroke="rgba(102, 22, 22, 1)" stroke-width="1.5"></path><path d="M1262.97 67.6L1274.94 -87.89" stroke="rgba(102, 22, 22, 1)" stroke-width="1.5"></path><path d="M1262.97 67.6L1241.46 240.48" stroke="rgba(102, 22, 22, 1)" stroke-width="1.5"></path><path d="M1262.97 67.6L1089.65 40.7" stroke="rgba(102, 22, 22, 1)" stroke-width="1.5"></path><path d="M1262.97 67.6L1389.67 201.63" stroke="rgba(102, 22, 22, 1)" stroke-width="1.5"></path><path d="M1241.46 240.48L1241.46 240.48" stroke="rgba(102, 22, 22, 1)" stroke-width="1.5"></path><path d="M1241.46 240.48L1389.67 201.63" stroke="rgba(102, 22, 22, 1)" stroke-width="1.5"></path><path d="M1241.46 240.48L1312.15 386.74" stroke="rgba(102, 22, 22, 1)" stroke-width="1.5"></path><path d="M1241.46 240.48L1408.49 361.31" stroke="rgba(102, 22, 22, 1)" stroke-width="1.5"></path><path d="M1312.15 386.74L1312.15 386.74" stroke="rgba(102, 22, 22, 1)" stroke-width="1.5"></path><path d="M1312.15 386.74L1408.49 361.31" stroke="rgba(102, 22, 22, 1)" stroke-width="1.5"></path><path d="M1312.15 386.74L1309.6 536.32" stroke="rgba(102, 22, 22, 1)" stroke-width="1.5"></path><path d="M1309.6 536.32L1309.6 536.32" stroke="rgba(102, 22, 22, 1)" stroke-width="1.5"></path><path d="M1309.6 536.32L1395.2 531.69" stroke="rgba(102, 22, 22, 1)" stroke-width="1.5"></path><path d="M1309.6 536.32L1251.55 674.55" stroke="rgba(102, 22, 22, 1)" stroke-width="1.5"></path><path d="M1251.55 674.55L1251.55 674.55" stroke="rgba(102, 22, 22, 1)" stroke-width="1.5"></path><path d="M1251.55 674.55L1428.95 698.36" stroke="rgba(102, 22, 22, 1)" stroke-width="1.5"></path><path d="M1420.17 -111.69L1420.17 -111.69" stroke="rgba(102, 22, 22, 1)" stroke-width="1.5"></path><path d="M1420.17 -111.69L1542.38 -40.72" stroke="rgba(102, 22, 22, 1)" stroke-width="1.5"></path><path d="M1420.17 -111.69L1399.01 106.7" stroke="rgba(102, 22, 22, 1)" stroke-width="1.5"></path><path d="M1420.17 -111.69L1262.97 67.6" stroke="rgba(102, 22, 22, 1)" stroke-width="1.5"></path><path d="M1420.17 -111.69L1599.5 49.58" stroke="rgba(102, 22, 22, 1)" stroke-width="1.5"></path><path d="M1399.01 106.7L1399.01 106.7" stroke="rgba(102, 22, 22, 1)" stroke-width="1.5"></path><path d="M1399.01 106.7L1389.67 201.63" stroke="rgba(102, 22, 22, 1)" stroke-width="1.5"></path><path d="M1399.01 106.7L1573.93 211.65" stroke="rgba(102, 22, 22, 1)" stroke-width="1.5"></path><path d="M1399.01 106.7L1542.38 -40.72" stroke="rgba(102, 22, 22, 1)" stroke-width="1.5"></path><path d="M1399.01 106.7L1241.46 240.48" stroke="rgba(102, 22, 22, 1)" stroke-width="1.5"></path><path d="M1399.01 106.7L1599.5 49.58" stroke="rgba(102, 22, 22, 1)" stroke-width="1.5"></path><path d="M1389.67 201.63L1389.67 201.63" stroke="rgba(102, 22, 22, 1)" stroke-width="1.5"></path><path d="M1408.49 361.31L1408.49 361.31" stroke="rgba(102, 22, 22, 1)" stroke-width="1.5"></path><path d="M1408.49 361.31L1389.67 201.63" stroke="rgba(102, 22, 22, 1)" stroke-width="1.5"></path><path d="M1408.49 361.31L1395.2 531.69" stroke="rgba(102, 22, 22, 1)" stroke-width="1.5"></path><path d="M1408.49 361.31L1595.49 379.09" stroke="rgba(102, 22, 22, 1)" stroke-width="1.5"></path><path d="M1408.49 361.31L1309.6 536.32" stroke="rgba(102, 22, 22, 1)" stroke-width="1.5"></path><path d="M1395.2 531.69L1395.2 531.69" stroke="rgba(102, 22, 22, 1)" stroke-width="1.5"></path><path d="M1395.2 531.69L1312.15 386.74" stroke="rgba(102, 22, 22, 1)" stroke-width="1.5"></path><path d="M1428.95 698.36L1428.95 698.36" stroke="rgba(102, 22, 22, 1)" stroke-width="1.5"></path><path d="M1428.95 698.36L1395.2 531.69" stroke="rgba(102, 22, 22, 1)" stroke-width="1.5"></path><path d="M1428.95 698.36L1606.21 669.09" stroke="rgba(102, 22, 22, 1)" stroke-width="1.5"></path><path d="M1428.95 698.36L1309.6 536.32" stroke="rgba(102, 22, 22, 1)" stroke-width="1.5"></path><path d="M1428.95 698.36L1570.53 519.19" stroke="rgba(102, 22, 22, 1)" stroke-width="1.5"></path><path d="M1542.38 -40.72L1542.38 -40.72" stroke="rgba(102, 22, 22, 1)" stroke-width="1.5"></path><path d="M1542.38 -40.72L1599.5 49.58" stroke="rgba(102, 22, 22, 1)" stroke-width="1.5"></path><path d="M1599.5 49.58L1599.5 49.58" stroke="rgba(102, 22, 22, 1)" stroke-width="1.5"></path><path d="M1599.5 49.58L1573.93 211.65" stroke="rgba(102, 22, 22, 1)" stroke-width="1.5"></path><path d="M1599.5 49.58L1389.67 201.63" stroke="rgba(102, 22, 22, 1)" stroke-width="1.5"></path><path d="M1573.93 211.65L1573.93 211.65" stroke="rgba(102, 22, 22, 1)" stroke-width="1.5"></path><path d="M1573.93 211.65L1595.49 379.09" stroke="rgba(102, 22, 22, 1)" stroke-width="1.5"></path><path d="M1573.93 211.65L1389.67 201.63" stroke="rgba(102, 22, 22, 1)" stroke-width="1.5"></path><path d="M1595.49 379.09L1595.49 379.09" stroke="rgba(102, 22, 22, 1)" stroke-width="1.5"></path><path d="M1595.49 379.09L1570.53 519.19" stroke="rgba(102, 22, 22, 1)" stroke-width="1.5"></path><path d="M1570.53 519.19L1570.53 519.19" stroke="rgba(102, 22, 22, 1)" stroke-width="1.5"></path><path d="M1570.53 519.19L1606.21 669.09" stroke="rgba(102, 22, 22, 1)" stroke-width="1.5"></path><path d="M1570.53 519.19L1395.2 531.69" stroke="rgba(102, 22, 22, 1)" stroke-width="1.5"></path><path d="M1606.21 669.09L1606.21 669.09" stroke="rgba(102, 22, 22, 1)" stroke-width="1.5"></path><path d="M1606.21 669.09L1395.2 531.69" stroke="rgba(102, 22, 22, 1)" stroke-width="1.5"></path><path d="M1606.21 669.09L1595.49 379.09" stroke="rgba(102, 22, 22, 1)" stroke-width="1.5"></path><path d="M1606.21 669.09L1309.6 536.32" stroke="rgba(102, 22, 22, 1)" stroke-width="1.5"></path><path d="M1606.21 669.09L1251.55 674.55" stroke="rgba(102, 22, 22, 1)" stroke-width="1.5"></path><circle r="5" cx="-95.45" cy="547.04" fill="rgba(102, 22, 22, 1)"></circle><circle r="5" cx="-72.05" cy="710.12" fill="rgba(102, 22, 22, 1)"></circle><circle r="5" cx="106.48" cy="338.21" fill="rgba(102, 22, 22, 1)"></circle><circle r="5" cx="58.43" cy="684.46" fill="rgba(102, 22, 22, 1)"></circle><circle r="5" cx="217.89" cy="372.46" fill="rgba(102, 22, 22, 1)"></circle><circle r="5" cx="261.31" cy="509" fill="rgba(102, 22, 22, 1)"></circle><circle r="5" cx="241.86" cy="677.13" fill="rgba(102, 22, 22, 1)"></circle><circle r="5" cx="387.54" cy="363.82" fill="rgba(102, 22, 22, 1)"></circle><circle r="5" cx="410.48" cy="507.3" fill="rgba(102, 22, 22, 1)"></circle><circle r="5" cx="389.62" cy="652.19" fill="rgba(102, 22, 22, 1)"></circle><circle r="5" cx="549.67" cy="370.42" fill="rgba(102, 22, 22, 1)"></circle><circle r="5" cx="494.65" cy="533.4" fill="rgba(102, 22, 22, 1)"></circle><circle r="5" cx="527.31" cy="678.41" fill="rgba(102, 22, 22, 1)"></circle><circle r="5" cx="658.87" cy="225.54" fill="rgba(102, 22, 22, 1)"></circle><circle r="5" cx="680.6" cy="408.82" fill="rgba(102, 22, 22, 1)"></circle><circle r="5" cx="671.09" cy="554.63" fill="rgba(102, 22, 22, 1)"></circle><circle r="5" cx="643.4" cy="667.26" fill="rgba(102, 22, 22, 1)"></circle><circle r="5" cx="857.37" cy="70.76" fill="rgba(102, 22, 22, 1)"></circle><circle r="5" cx="861.44" cy="223.7" fill="rgba(102, 22, 22, 1)"></circle><circle r="5" cx="791.7" cy="395.12" fill="rgba(102, 22, 22, 1)"></circle><circle r="5" cx="816.33" cy="530.04" fill="rgba(102, 22, 22, 1)"></circle><circle r="5" cx="820.69" cy="702.24" fill="rgba(102, 22, 22, 1)"></circle><circle r="5" cx="1007.86" cy="-65.2" fill="rgba(102, 22, 22, 1)"></circle><circle r="5" cx="1002.34" cy="58.3" fill="rgba(102, 22, 22, 1)"></circle><circle r="5" cx="953.3" cy="259.81" fill="rgba(102, 22, 22, 1)"></circle><circle r="5" cx="1005.98" cy="368.92" fill="rgba(102, 22, 22, 1)"></circle><circle r="5" cx="954.63" cy="526.17" fill="rgba(102, 22, 22, 1)"></circle><circle r="5" cx="999.58" cy="696.33" fill="rgba(102, 22, 22, 1)"></circle><circle r="5" cx="1149.37" cy="-55.1" fill="rgba(102, 22, 22, 1)"></circle><circle r="5" cx="1089.65" cy="40.7" fill="rgba(102, 22, 22, 1)"></circle><circle r="5" cx="1102.91" cy="218.74" fill="rgba(102, 22, 22, 1)"></circle><circle r="5" cx="1147.9" cy="346.63" fill="rgba(102, 22, 22, 1)"></circle><circle r="5" cx="1111.67" cy="522.35" fill="rgba(102, 22, 22, 1)"></circle><circle r="5" cx="1161.58" cy="657.05" fill="rgba(102, 22, 22, 1)"></circle><circle r="5" cx="1274.94" cy="-87.89" fill="rgba(102, 22, 22, 1)"></circle><circle r="5" cx="1262.97" cy="67.6" fill="rgba(102, 22, 22, 1)"></circle><circle r="5" cx="1241.46" cy="240.48" fill="rgba(102, 22, 22, 1)"></circle><circle r="5" cx="1312.15" cy="386.74" fill="rgba(102, 22, 22, 1)"></circle><circle r="5" cx="1309.6" cy="536.32" fill="rgba(102, 22, 22, 1)"></circle><circle r="5" cx="1251.55" cy="674.55" fill="rgba(102, 22, 22, 1)"></circle><circle r="5" cx="1420.17" cy="-111.69" fill="rgba(102, 22, 22, 1)"></circle><circle r="5" cx="1399.01" cy="106.7" fill="rgba(102, 22, 22, 1)"></circle><circle r="5" cx="1389.67" cy="201.63" fill="rgba(102, 22, 22, 1)"></circle><circle r="5" cx="1408.49" cy="361.31" fill="rgba(102, 22, 22, 1)"></circle><circle r="5" cx="1395.2" cy="531.69" fill="rgba(102, 22, 22, 1)"></circle><circle r="5" cx="1428.95" cy="698.36" fill="rgba(102, 22, 22, 1)"></circle><circle r="5" cx="1542.38" cy="-40.72" fill="rgba(102, 22, 22, 1)"></circle><circle r="5" cx="1599.5" cy="49.58" fill="rgba(102, 22, 22, 1)"></circle><circle r="5" cx="1573.93" cy="211.65" fill="rgba(102, 22, 22, 1)"></circle><circle r="5" cx="1595.49" cy="379.09" fill="rgba(102, 22, 22, 1)"></circle><circle r="5" cx="1570.53" cy="519.19" fill="rgba(102, 22, 22, 1)"></circle><circle r="5" cx="1606.21" cy="669.09" fill="rgba(102, 22, 22, 1)"></circle><path d="M-40.21 489.35L-40.21 489.35" stroke="hsl(0, 66.7%, 29.1%)" stroke-width="1.5"></path><path d="M-40.21 489.35L71.71 552.01" stroke="hsl(0, 66.7%, 29.1%)" stroke-width="1.5"></path><path d="M-40.21 489.35L-68.69 655.26" stroke="hsl(0, 66.7%, 29.1%)" stroke-width="1.5"></path><path d="M-40.21 489.35L39.12 699.9" stroke="hsl(0, 66.7%, 29.1%)" stroke-width="1.5"></path><path d="M-40.21 489.35L258.26 491.92" stroke="hsl(0, 66.7%, 29.1%)" stroke-width="1.5"></path><path d="M-40.21 489.35L219.22 692" stroke="hsl(0, 66.7%, 29.1%)" stroke-width="1.5"></path><path d="M-40.21 489.35L393.05 504.3" stroke="hsl(0, 66.7%, 29.1%)" stroke-width="1.5"></path><path d="M39.12 699.9L39.12 699.9" stroke="hsl(0, 66.7%, 29.1%)" stroke-width="1.5"></path><path d="M39.12 699.9L-68.69 655.26" stroke="hsl(0, 66.7%, 29.1%)" stroke-width="1.5"></path><path d="M39.12 699.9L71.71 552.01" stroke="hsl(0, 66.7%, 29.1%)" stroke-width="1.5"></path><path d="M39.12 699.9L219.22 692" stroke="hsl(0, 66.7%, 29.1%)" stroke-width="1.5"></path><path d="M505.12 702.85L505.12 702.85" stroke="hsl(0, 66.7%, 29.1%)" stroke-width="1.5"></path><path d="M505.12 702.85L368.05 700.62" stroke="hsl(0, 66.7%, 29.1%)" stroke-width="1.5"></path><path d="M505.12 702.85L704.95 641.47" stroke="hsl(0, 66.7%, 29.1%)" stroke-width="1.5"></path><path d="M657.26 390.1L657.26 390.1" stroke="hsl(0, 66.7%, 29.1%)" stroke-width="1.5"></path><path d="M657.26 390.1L560.19 495.02" stroke="hsl(0, 66.7%, 29.1%)" stroke-width="1.5"></path><path d="M657.26 390.1L830.77 409.93" stroke="hsl(0, 66.7%, 29.1%)" stroke-width="1.5"></path><path d="M657.26 390.1L861.72 499.27" stroke="hsl(0, 66.7%, 29.1%)" stroke-width="1.5"></path><path d="M1141.1 196.32L1141.1 196.32" stroke="hsl(0, 66.7%, 29.1%)" stroke-width="1.5"></path><path d="M1141.1 196.32L1293.83 219.46" stroke="hsl(0, 66.7%, 29.1%)" stroke-width="1.5"></path><path d="M1141.1 196.32L1124.55 383.1" stroke="hsl(0, 66.7%, 29.1%)" stroke-width="1.5"></path><path d="M1141.1 196.32L981.2 382.54" stroke="hsl(0, 66.7%, 29.1%)" stroke-width="1.5"></path><path d="M1141.1 196.32L1284.4 404.33" stroke="hsl(0, 66.7%, 29.1%)" stroke-width="1.5"></path><path d="M1141.1 196.32L1278.61 -48.64" stroke="hsl(0, 66.7%, 29.1%)" stroke-width="1.5"></path><path d="M1141.1 196.32L1144.69 496.68" stroke="hsl(0, 66.7%, 29.1%)" stroke-width="1.5"></path><path d="M1279.24 536.94L1279.24 536.94" stroke="hsl(0, 66.7%, 29.1%)" stroke-width="1.5"></path><path d="M1279.24 536.94L1284.4 404.33" stroke="hsl(0, 66.7%, 29.1%)" stroke-width="1.5"></path><path d="M1279.24 536.94L1144.69 496.68" stroke="hsl(0, 66.7%, 29.1%)" stroke-width="1.5"></path><path d="M1279.24 536.94L1419.49 501.39" stroke="hsl(0, 66.7%, 29.1%)" stroke-width="1.5"></path><path d="M1279.24 536.94L1259.64 691.91" stroke="hsl(0, 66.7%, 29.1%)" stroke-width="1.5"></path><path d="M1418.06 -80.72L1418.06 -80.72" stroke="hsl(0, 66.7%, 29.1%)" stroke-width="1.5"></path><path d="M1418.06 -80.72L1278.61 -48.64" stroke="hsl(0, 66.7%, 29.1%)" stroke-width="1.5"></path><path d="M1418.06 -80.72L1451.02 89.89" stroke="hsl(0, 66.7%, 29.1%)" stroke-width="1.5"></path><path d="M1418.06 -80.72L1590.8 -100.95" stroke="hsl(0, 66.7%, 29.1%)" stroke-width="1.5"></path><path d="M1418.06 -80.72L1612.38 37.62" stroke="hsl(0, 66.7%, 29.1%)" stroke-width="1.5"></path><path d="M1418.06 -80.72L1459.92 234.98" stroke="hsl(0, 66.7%, 29.1%)" stroke-width="1.5"></path><path d="M1399.89 360.31L1399.89 360.31" stroke="hsl(0, 66.7%, 29.1%)" stroke-width="1.5"></path><path d="M1399.89 360.31L1284.4 404.33" stroke="hsl(0, 66.7%, 29.1%)" stroke-width="1.5"></path><path d="M1399.89 360.31L1459.92 234.98" stroke="hsl(0, 66.7%, 29.1%)" stroke-width="1.5"></path><path d="M1399.89 360.31L1540.86 356.45" stroke="hsl(0, 66.7%, 29.1%)" stroke-width="1.5"></path><path d="M1399.89 360.31L1419.49 501.39" stroke="hsl(0, 66.7%, 29.1%)" stroke-width="1.5"></path><path d="M1562.24 204.89L1562.24 204.89" stroke="hsl(0, 66.7%, 29.1%)" stroke-width="1.5"></path><path d="M1562.24 204.89L1459.92 234.98" stroke="hsl(0, 66.7%, 29.1%)" stroke-width="1.5"></path><path d="M1562.24 204.89L1540.86 356.45" stroke="hsl(0, 66.7%, 29.1%)" stroke-width="1.5"></path><path d="M1562.24 204.89L1451.02 89.89" stroke="hsl(0, 66.7%, 29.1%)" stroke-width="1.5"></path><path d="M1562.24 204.89L1612.38 37.62" stroke="hsl(0, 66.7%, 29.1%)" stroke-width="1.5"></path><path d="M1562.24 204.89L1399.89 360.31" stroke="hsl(0, 66.7%, 29.1%)" stroke-width="1.5"></path><path d="M-68.69 655.26L-68.69 655.26" stroke="hsl(0, 66.7%, 29.1%)" stroke-width="1.5"></path><path d="M71.71 552.01L71.71 552.01" stroke="hsl(0, 66.7%, 29.1%)" stroke-width="1.5"></path><path d="M71.71 552.01L-68.69 655.26" stroke="hsl(0, 66.7%, 29.1%)" stroke-width="1.5"></path><path d="M71.71 552.01L258.26 491.92" stroke="hsl(0, 66.7%, 29.1%)" stroke-width="1.5"></path><path d="M71.71 552.01L219.22 692" stroke="hsl(0, 66.7%, 29.1%)" stroke-width="1.5"></path><path d="M71.71 552.01L393.05 504.3" stroke="hsl(0, 66.7%, 29.1%)" stroke-width="1.5"></path><path d="M258.26 491.92L258.26 491.92" stroke="hsl(0, 66.7%, 29.1%)" stroke-width="1.5"></path><path d="M258.26 491.92L393.05 504.3" stroke="hsl(0, 66.7%, 29.1%)" stroke-width="1.5"></path><path d="M219.22 692L219.22 692" stroke="hsl(0, 66.7%, 29.1%)" stroke-width="1.5"></path><path d="M219.22 692L368.05 700.62" stroke="hsl(0, 66.7%, 29.1%)" stroke-width="1.5"></path><path d="M393.05 504.3L393.05 504.3" stroke="hsl(0, 66.7%, 29.1%)" stroke-width="1.5"></path><path d="M393.05 504.3L560.19 495.02" stroke="hsl(0, 66.7%, 29.1%)" stroke-width="1.5"></path><path d="M393.05 504.3L368.05 700.62" stroke="hsl(0, 66.7%, 29.1%)" stroke-width="1.5"></path><path d="M393.05 504.3L505.12 702.85" stroke="hsl(0, 66.7%, 29.1%)" stroke-width="1.5"></path><path d="M393.05 504.3L219.22 692" stroke="hsl(0, 66.7%, 29.1%)" stroke-width="1.5"></path><path d="M368.05 700.62L368.05 700.62" stroke="hsl(0, 66.7%, 29.1%)" stroke-width="1.5"></path><path d="M560.19 495.02L560.19 495.02" stroke="hsl(0, 66.7%, 29.1%)" stroke-width="1.5"></path><path d="M560.19 495.02L704.95 641.47" stroke="hsl(0, 66.7%, 29.1%)" stroke-width="1.5"></path><path d="M560.19 495.02L505.12 702.85" stroke="hsl(0, 66.7%, 29.1%)" stroke-width="1.5"></path><path d="M704.95 641.47L704.95 641.47" stroke="hsl(0, 66.7%, 29.1%)" stroke-width="1.5"></path><path d="M704.95 641.47L791.44 639.22" stroke="hsl(0, 66.7%, 29.1%)" stroke-width="1.5"></path><path d="M704.95 641.47L861.72 499.27" stroke="hsl(0, 66.7%, 29.1%)" stroke-width="1.5"></path><path d="M704.95 641.47L657.26 390.1" stroke="hsl(0, 66.7%, 29.1%)" stroke-width="1.5"></path><path d="M830.77 409.93L830.77 409.93" stroke="hsl(0, 66.7%, 29.1%)" stroke-width="1.5"></path><path d="M830.77 409.93L861.72 499.27" stroke="hsl(0, 66.7%, 29.1%)" stroke-width="1.5"></path><path d="M830.77 409.93L981.2 382.54" stroke="hsl(0, 66.7%, 29.1%)" stroke-width="1.5"></path><path d="M830.77 409.93L975.76 547.07" stroke="hsl(0, 66.7%, 29.1%)" stroke-width="1.5"></path><path d="M830.77 409.93L791.44 639.22" stroke="hsl(0, 66.7%, 29.1%)" stroke-width="1.5"></path><path d="M861.72 499.27L861.72 499.27" stroke="hsl(0, 66.7%, 29.1%)" stroke-width="1.5"></path><path d="M861.72 499.27L975.76 547.07" stroke="hsl(0, 66.7%, 29.1%)" stroke-width="1.5"></path><path d="M861.72 499.27L791.44 639.22" stroke="hsl(0, 66.7%, 29.1%)" stroke-width="1.5"></path><path d="M861.72 499.27L981.2 382.54" stroke="hsl(0, 66.7%, 29.1%)" stroke-width="1.5"></path><path d="M861.72 499.27L954.1 702.37" stroke="hsl(0, 66.7%, 29.1%)" stroke-width="1.5"></path><path d="M791.44 639.22L791.44 639.22" stroke="hsl(0, 66.7%, 29.1%)" stroke-width="1.5"></path><path d="M791.44 639.22L954.1 702.37" stroke="hsl(0, 66.7%, 29.1%)" stroke-width="1.5"></path><path d="M791.44 639.22L975.76 547.07" stroke="hsl(0, 66.7%, 29.1%)" stroke-width="1.5"></path><path d="M791.44 639.22L560.19 495.02" stroke="hsl(0, 66.7%, 29.1%)" stroke-width="1.5"></path><path d="M981.2 382.54L981.2 382.54" stroke="hsl(0, 66.7%, 29.1%)" stroke-width="1.5"></path><path d="M981.2 382.54L1124.55 383.1" stroke="hsl(0, 66.7%, 29.1%)" stroke-width="1.5"></path><path d="M975.76 547.07L975.76 547.07" stroke="hsl(0, 66.7%, 29.1%)" stroke-width="1.5"></path><path d="M975.76 547.07L954.1 702.37" stroke="hsl(0, 66.7%, 29.1%)" stroke-width="1.5"></path><path d="M975.76 547.07L981.2 382.54" stroke="hsl(0, 66.7%, 29.1%)" stroke-width="1.5"></path><path d="M975.76 547.07L1144.69 496.68" stroke="hsl(0, 66.7%, 29.1%)" stroke-width="1.5"></path><path d="M975.76 547.07L1133.95 668.24" stroke="hsl(0, 66.7%, 29.1%)" stroke-width="1.5"></path><path d="M954.1 702.37L954.1 702.37" stroke="hsl(0, 66.7%, 29.1%)" stroke-width="1.5"></path><path d="M1124.55 383.1L1124.55 383.1" stroke="hsl(0, 66.7%, 29.1%)" stroke-width="1.5"></path><path d="M1124.55 383.1L1144.69 496.68" stroke="hsl(0, 66.7%, 29.1%)" stroke-width="1.5"></path><path d="M1144.69 496.68L1144.69 496.68" stroke="hsl(0, 66.7%, 29.1%)" stroke-width="1.5"></path><path d="M1144.69 496.68L1284.4 404.33" stroke="hsl(0, 66.7%, 29.1%)" stroke-width="1.5"></path><path d="M1133.95 668.24L1133.95 668.24" stroke="hsl(0, 66.7%, 29.1%)" stroke-width="1.5"></path><path d="M1133.95 668.24L1259.64 691.91" stroke="hsl(0, 66.7%, 29.1%)" stroke-width="1.5"></path><path d="M1133.95 668.24L1144.69 496.68" stroke="hsl(0, 66.7%, 29.1%)" stroke-width="1.5"></path><path d="M1133.95 668.24L954.1 702.37" stroke="hsl(0, 66.7%, 29.1%)" stroke-width="1.5"></path><path d="M1133.95 668.24L1279.24 536.94" stroke="hsl(0, 66.7%, 29.1%)" stroke-width="1.5"></path><path d="M1278.61 -48.64L1278.61 -48.64" stroke="hsl(0, 66.7%, 29.1%)" stroke-width="1.5"></path><path d="M1278.61 -48.64L1451.02 89.89" stroke="hsl(0, 66.7%, 29.1%)" stroke-width="1.5"></path><path d="M1278.61 -48.64L1293.83 219.46" stroke="hsl(0, 66.7%, 29.1%)" stroke-width="1.5"></path><path d="M1278.61 -48.64L1590.8 -100.95" stroke="hsl(0, 66.7%, 29.1%)" stroke-width="1.5"></path><path d="M1278.61 -48.64L1459.92 234.98" stroke="hsl(0, 66.7%, 29.1%)" stroke-width="1.5"></path><path d="M1293.83 219.46L1293.83 219.46" stroke="hsl(0, 66.7%, 29.1%)" stroke-width="1.5"></path><path d="M1293.83 219.46L1459.92 234.98" stroke="hsl(0, 66.7%, 29.1%)" stroke-width="1.5"></path><path d="M1293.83 219.46L1399.89 360.31" stroke="hsl(0, 66.7%, 29.1%)" stroke-width="1.5"></path><path d="M1293.83 219.46L1284.4 404.33" stroke="hsl(0, 66.7%, 29.1%)" stroke-width="1.5"></path><path d="M1293.83 219.46L1451.02 89.89" stroke="hsl(0, 66.7%, 29.1%)" stroke-width="1.5"></path><path d="M1284.4 404.33L1284.4 404.33" stroke="hsl(0, 66.7%, 29.1%)" stroke-width="1.5"></path><path d="M1284.4 404.33L1124.55 383.1" stroke="hsl(0, 66.7%, 29.1%)" stroke-width="1.5"></path><path d="M1284.4 404.33L1419.49 501.39" stroke="hsl(0, 66.7%, 29.1%)" stroke-width="1.5"></path><path d="M1259.64 691.91L1259.64 691.91" stroke="hsl(0, 66.7%, 29.1%)" stroke-width="1.5"></path><path d="M1259.64 691.91L1428.86 693.69" stroke="hsl(0, 66.7%, 29.1%)" stroke-width="1.5"></path><path d="M1259.64 691.91L1144.69 496.68" stroke="hsl(0, 66.7%, 29.1%)" stroke-width="1.5"></path><path d="M1259.64 691.91L1419.49 501.39" stroke="hsl(0, 66.7%, 29.1%)" stroke-width="1.5"></path><path d="M1259.64 691.91L1284.4 404.33" stroke="hsl(0, 66.7%, 29.1%)" stroke-width="1.5"></path><path d="M1451.02 89.89L1451.02 89.89" stroke="hsl(0, 66.7%, 29.1%)" stroke-width="1.5"></path><path d="M1451.02 89.89L1459.92 234.98" stroke="hsl(0, 66.7%, 29.1%)" stroke-width="1.5"></path><path d="M1459.92 234.98L1459.92 234.98" stroke="hsl(0, 66.7%, 29.1%)" stroke-width="1.5"></path><path d="M1459.92 234.98L1540.86 356.45" stroke="hsl(0, 66.7%, 29.1%)" stroke-width="1.5"></path><path d="M1459.92 234.98L1284.4 404.33" stroke="hsl(0, 66.7%, 29.1%)" stroke-width="1.5"></path><path d="M1419.49 501.39L1419.49 501.39" stroke="hsl(0, 66.7%, 29.1%)" stroke-width="1.5"></path><path d="M1428.86 693.69L1428.86 693.69" stroke="hsl(0, 66.7%, 29.1%)" stroke-width="1.5"></path><path d="M1428.86 693.69L1559.35 679.95" stroke="hsl(0, 66.7%, 29.1%)" stroke-width="1.5"></path><path d="M1428.86 693.69L1419.49 501.39" stroke="hsl(0, 66.7%, 29.1%)" stroke-width="1.5"></path><path d="M1428.86 693.69L1279.24 536.94" stroke="hsl(0, 66.7%, 29.1%)" stroke-width="1.5"></path><path d="M1590.8 -100.95L1590.8 -100.95" stroke="hsl(0, 66.7%, 29.1%)" stroke-width="1.5"></path><path d="M1590.8 -100.95L1612.38 37.62" stroke="hsl(0, 66.7%, 29.1%)" stroke-width="1.5"></path><path d="M1590.8 -100.95L1451.02 89.89" stroke="hsl(0, 66.7%, 29.1%)" stroke-width="1.5"></path><path d="M1612.38 37.62L1612.38 37.62" stroke="hsl(0, 66.7%, 29.1%)" stroke-width="1.5"></path><path d="M1612.38 37.62L1451.02 89.89" stroke="hsl(0, 66.7%, 29.1%)" stroke-width="1.5"></path><path d="M1540.86 356.45L1540.86 356.45" stroke="hsl(0, 66.7%, 29.1%)" stroke-width="1.5"></path><path d="M1540.86 356.45L1599.46 527.3" stroke="hsl(0, 66.7%, 29.1%)" stroke-width="1.5"></path><path d="M1540.86 356.45L1419.49 501.39" stroke="hsl(0, 66.7%, 29.1%)" stroke-width="1.5"></path><path d="M1540.86 356.45L1284.4 404.33" stroke="hsl(0, 66.7%, 29.1%)" stroke-width="1.5"></path><path d="M1599.46 527.3L1599.46 527.3" stroke="hsl(0, 66.7%, 29.1%)" stroke-width="1.5"></path><path d="M1599.46 527.3L1559.35 679.95" stroke="hsl(0, 66.7%, 29.1%)" stroke-width="1.5"></path><path d="M1599.46 527.3L1419.49 501.39" stroke="hsl(0, 66.7%, 29.1%)" stroke-width="1.5"></path><path d="M1599.46 527.3L1428.86 693.69" stroke="hsl(0, 66.7%, 29.1%)" stroke-width="1.5"></path><path d="M1559.35 679.95L1559.35 679.95" stroke="hsl(0, 66.7%, 29.1%)" stroke-width="1.5"></path><path d="M1559.35 679.95L1419.49 501.39" stroke="hsl(0, 66.7%, 29.1%)" stroke-width="1.5"></path><path d="M1559.35 679.95L1259.64 691.91" stroke="hsl(0, 66.7%, 29.1%)" stroke-width="1.5"></path><circle r="25" cx="-40.21" cy="489.35" fill="url(&quot;#SvgjsRadialGradient1015&quot;)"></circle><circle r="25" cx="39.12" cy="699.9" fill="url(&quot;#SvgjsRadialGradient1015&quot;)"></circle><circle r="25" cx="505.12" cy="702.85" fill="url(&quot;#SvgjsRadialGradient1015&quot;)"></circle><circle r="25" cx="657.26" cy="390.1" fill="url(&quot;#SvgjsRadialGradient1015&quot;)"></circle><circle r="25" cx="1141.1" cy="196.32" fill="url(&quot;#SvgjsRadialGradient1015&quot;)"></circle><circle r="25" cx="1279.24" cy="536.94" fill="url(&quot;#SvgjsRadialGradient1015&quot;)"></circle><circle r="25" cx="1418.06" cy="-80.72" fill="url(&quot;#SvgjsRadialGradient1015&quot;)"></circle><circle r="25" cx="1399.89" cy="360.31" fill="url(&quot;#SvgjsRadialGradient1015&quot;)"></circle><circle r="25" cx="1562.24" cy="204.89" fill="url(&quot;#SvgjsRadialGradient1015&quot;)"></circle><circle r="5" cx="-68.69" cy="655.26" fill="#af8989"></circle><circle r="5" cx="71.71" cy="552.01" fill="#af8989"></circle><circle r="5" cx="258.26" cy="491.92" fill="#af8989"></circle><circle r="5" cx="219.22" cy="692" fill="#af8989"></circle><circle r="5" cx="393.05" cy="504.3" fill="#af8989"></circle><circle r="5" cx="368.05" cy="700.62" fill="#af8989"></circle><circle r="5" cx="560.19" cy="495.02" fill="#af8989"></circle><circle r="5" cx="704.95" cy="641.47" fill="#af8989"></circle><circle r="5" cx="830.77" cy="409.93" fill="#af8989"></circle><circle r="5" cx="861.72" cy="499.27" fill="#af8989"></circle><circle r="5" cx="791.44" cy="639.22" fill="#af8989"></circle><circle r="5" cx="981.2" cy="382.54" fill="#af8989"></circle><circle r="5" cx="975.76" cy="547.07" fill="#af8989"></circle><circle r="5" cx="954.1" cy="702.37" fill="#af8989"></circle><circle r="5" cx="1124.55" cy="383.1" fill="#af8989"></circle><circle r="5" cx="1144.69" cy="496.68" fill="#af8989"></circle><circle r="5" cx="1133.95" cy="668.24" fill="#af8989"></circle><circle r="5" cx="1278.61" cy="-48.64" fill="#af8989"></circle><circle r="5" cx="1293.83" cy="219.46" fill="#af8989"></circle><circle r="5" cx="1284.4" cy="404.33" fill="#af8989"></circle><circle r="5" cx="1259.64" cy="691.91" fill="#af8989"></circle><circle r="5" cx="1451.02" cy="89.89" fill="#af8989"></circle><circle r="5" cx="1459.92" cy="234.98" fill="#af8989"></circle><circle r="5" cx="1419.49" cy="501.39" fill="#af8989"></circle><circle r="5" cx="1428.86" cy="693.69" fill="#af8989"></circle><circle r="5" cx="1590.8" cy="-100.95" fill="#af8989"></circle><circle r="5" cx="1612.38" cy="37.62" fill="#af8989"></circle><circle r="5" cx="1540.86" cy="356.45" fill="#af8989"></circle><circle r="5" cx="1599.46" cy="527.3" fill="#af8989"></circle><circle r="5" cx="1559.35" cy="679.95" fill="#af8989"></circle></g><defs><mask id="SvgjsMask1014"><rect width="1440" height="560" fill="#ffffff"></rect></mask><radialGradient id="SvgjsRadialGradient1015"><stop stop-color="#ffffff" offset="0.1"></stop><stop stop-color="rgba(95, 19, 19, 1)" offset="0.2"></stop><stop stop-color="rgba(95, 19, 19, 0)" offset="1"></stop></radialGradient></defs></svg>