<svg 
 xmlns="http://www.w3.org/2000/svg"
 xmlns:xlink="http://www.w3.org/1999/xlink"
 width="574px" height="68px">
<path fill-rule="evenodd"  fill="#535050"
 d="M0.909,41.009 L15.935,32.350 L30.961,41.009 L30.961,58.325 L15.935,66.984 L0.909,58.325 L0.909,41.009 Z"/>
<path fill-rule="evenodd"  fill="#535050"
 d="M38.416,41.009 L53.441,32.350 L68.467,41.009 L68.467,58.325 L53.441,66.984 L38.416,58.325 L38.416,41.009 Z"/>
<path fill-rule="evenodd"  fill="#535050"
 d="M19.663,8.819 L34.688,0.161 L49.714,8.819 L49.714,26.135 L34.688,34.794 L19.663,26.135 L19.663,8.819 Z"/>
<path fill-rule="evenodd"  stroke="rgb(0, 0, 0)" stroke-width="0px" stroke-linecap="butt" stroke-linejoin="miter" fill="#535050"
 d="M568.869,60.209 L560.175,60.209 L560.175,66.366 C560.175,67.112 559.801,67.485 559.053,67.485 L557.371,67.485 L557.371,50.693 L568.869,50.693 C572.047,50.693 573.636,52.279 573.636,55.451 C573.636,58.623 572.047,60.209 568.869,60.209 ZM568.308,52.932 L560.175,52.932 L560.175,57.970 L568.308,57.970 C569.990,57.970 570.832,57.130 570.832,55.451 C570.832,53.772 569.990,52.932 568.308,52.932 ZM548.327,67.485 L542.999,67.485 C539.073,67.485 537.110,65.526 537.110,61.608 L537.110,50.693 L538.792,50.693 C539.540,50.693 539.914,51.066 539.914,51.813 L539.914,61.608 C539.914,64.034 541.129,65.246 543.560,65.246 L547.766,65.246 C550.197,65.246 551.412,64.034 551.412,61.608 L551.412,51.813 C551.412,51.066 551.786,50.693 552.534,50.693 L554.216,50.693 L554.216,61.608 C554.216,65.526 552.253,67.485 548.327,67.485 ZM528.300,67.485 L522.691,67.485 C518.765,67.485 516.802,65.526 516.802,61.608 L516.802,56.570 C516.802,52.652 518.765,50.693 522.691,50.693 L528.300,50.693 C532.226,50.693 534.189,52.652 534.189,56.570 L534.189,61.608 C534.189,65.526 532.226,67.485 528.300,67.485 ZM531.385,56.570 C531.385,54.145 530.169,52.932 527.739,52.932 L523.252,52.932 C520.821,52.932 519.606,54.145 519.606,56.570 L519.606,61.608 C519.606,64.034 520.821,65.246 523.252,65.246 L527.739,65.246 C530.169,65.246 531.385,64.034 531.385,61.608 L531.385,56.570 ZM512.900,67.485 C512.152,67.485 511.474,67.112 510.843,66.366 L505.678,60.209 L500.771,60.209 L500.771,66.366 C500.771,67.112 500.397,67.485 499.649,67.485 L497.966,67.485 L497.966,50.693 L509.464,50.693 C512.643,50.693 514.232,52.279 514.232,55.451 C514.232,58.623 512.643,60.209 509.464,60.209 L508.973,60.209 L515.073,67.485 L512.900,67.485 ZM511.427,55.451 C511.427,53.772 510.586,52.932 508.903,52.932 L500.771,52.932 L500.771,57.970 L508.903,57.970 C510.586,57.970 511.427,57.130 511.427,55.451 ZM478.617,61.608 L478.617,56.570 C478.617,52.652 480.580,50.693 484.506,50.693 L494.882,50.693 L494.882,51.813 C494.882,52.559 494.508,52.932 493.760,52.932 L485.067,52.932 C482.636,52.932 481.421,54.145 481.421,56.570 L481.421,61.608 C481.421,64.034 482.636,65.246 485.067,65.246 L492.358,65.246 L492.358,60.209 C492.358,59.462 492.732,59.089 493.480,59.089 L495.163,59.089 L495.163,67.485 L484.506,67.485 C480.580,67.485 478.617,65.526 478.617,61.608 Z"/>
<path fill-rule="evenodd"  fill="#ffff"
 d="M468.168,67.411 C464.584,67.411 461.826,65.578 460.196,62.112 L455.315,51.693 C450.537,41.607 443.295,26.274 439.872,18.771 C436.439,26.273 429.178,41.609 424.383,51.702 L419.508,62.109 C417.876,65.578 415.119,67.411 411.534,67.411 L407.286,67.411 L402.171,67.411 L344.478,67.411 L337.307,67.411 L335.117,67.411 C331.533,67.411 328.776,65.579 327.145,62.112 L322.264,51.693 C317.485,41.607 310.244,26.274 306.820,18.771 C303.388,26.273 296.126,41.609 291.332,51.702 L286.457,62.109 C284.824,65.579 282.067,67.411 278.483,67.411 L274.144,67.411 L269.121,67.411 L265.898,67.411 C262.504,67.411 259.743,64.660 259.743,61.278 L259.743,40.327 L221.867,40.327 L221.867,61.278 C221.867,64.660 219.106,67.411 215.712,67.411 L212.304,67.411 L207.466,67.411 L202.943,67.411 C199.358,67.411 196.601,65.579 194.970,62.112 L190.089,51.693 C185.310,41.606 178.069,26.274 174.646,18.771 C171.213,26.273 163.952,41.609 159.156,51.702 L154.282,62.109 C152.650,65.578 149.893,67.411 146.308,67.411 L136.946,67.411 L141.573,58.084 C138.087,63.674 131.855,67.411 124.773,67.411 L78.886,67.411 L78.886,61.278 C78.886,57.897 81.647,55.146 85.041,55.146 L122.681,55.146 C125.281,55.146 127.195,54.542 128.371,53.351 C129.574,52.133 130.161,50.147 130.117,47.452 C130.051,43.523 126.716,40.327 122.681,40.327 L97.588,40.327 C91.136,40.327 86.175,38.637 82.843,35.305 C79.499,31.961 77.817,26.984 77.841,20.512 C77.882,9.742 86.740,0.979 97.588,0.979 L142.428,0.979 L142.428,7.111 C142.428,10.492 139.667,13.243 136.273,13.243 L99.679,13.243 C97.080,13.243 95.166,13.847 93.990,15.038 C92.787,16.257 92.199,18.242 92.244,20.938 C92.309,24.867 95.645,28.062 99.679,28.062 L124.773,28.063 C131.224,28.063 136.186,29.753 139.518,33.085 C142.861,36.429 144.544,41.406 144.519,47.878 C144.510,50.274 144.063,52.570 143.255,54.694 L167.629,5.567 C167.702,5.409 169.939,0.741 174.648,0.741 C179.371,0.741 181.559,5.426 181.650,5.625 L207.466,57.658 L207.466,0.979 L215.712,0.979 C219.106,0.979 221.867,3.730 221.867,7.111 L221.867,28.063 L259.743,28.063 L259.743,7.111 C259.743,3.730 262.504,0.979 265.898,0.979 L274.144,0.979 L274.144,57.286 L299.803,5.567 C299.877,5.409 302.114,0.741 306.823,0.741 C311.546,0.741 313.733,5.426 313.825,5.625 L341.818,62.048 L382.876,13.243 L347.808,13.243 C344.414,13.243 341.653,10.492 341.653,7.111 L341.653,0.979 L410.586,0.979 L365.017,55.146 L401.131,55.146 C403.513,55.146 405.579,56.504 406.602,58.481 L432.855,5.567 C432.928,5.409 435.165,0.741 439.875,0.741 C444.598,0.741 446.785,5.426 446.876,5.626 L477.531,67.411 L468.168,67.411 Z"/>
</svg>